<svg width="24" height="24" viewBox="0 0 24 24" fill="none" xmlns="http://www.w3.org/2000/svg">
<path d="M2.00696 23.9992H0.00695801V15.9992C0.00880882 13.6141 0.956654 11.327 2.64257 9.63979C4.32848 7.95257 6.61479 7.00294 8.99996 6.99924L13.843 6.84524V0.431244L23.13 9.72423C23.6924 10.2868 24.0083 11.0497 24.0083 11.8452C24.0083 12.6407 23.6924 13.4036 23.13 13.9662L13.845 23.2592V16.8452L8.99996 16.9992C7.14514 17.0027 5.36739 17.7415 4.05649 19.0537C2.74559 20.3659 2.00854 22.1444 2.00696 23.9992ZM9.00696 14.9992L15.849 14.8452V18.4312L21.723 12.5522C21.9104 12.3647 22.0157 12.1104 22.0157 11.8452C22.0157 11.5801 21.9104 11.3258 21.723 11.1382L15.844 5.25924V8.84523L8.99996 8.99923C7.14393 9.00082 5.36438 9.73883 4.05197 11.0512C2.73956 12.3636 2.00155 14.1432 1.99996 15.9992V18.3482C2.84207 17.3021 3.9081 16.4582 5.11954 15.8786C6.33099 15.299 7.657 14.9985 8.99996 14.9992H9.00696Z" fill="#329f29"/>
</svg>
